<svg width="64" height="32" viewBox="0 0 64 32" fill="none" xmlns="http://www.w3.org/2000/svg">
<path fill-rule="evenodd" clip-rule="evenodd" d="M3.50124 25.571C-1.49202 19.4196 -1.14424 10.3286 4.54319 4.58605C10.6021 -1.52868 20.4238 -1.52868 26.4828 4.58605C32.5404 10.7022 32.5404 20.6166 26.4828 26.7328C20.6082 32.6628 11.1943 32.8419 5.10606 27.2728L18.8037 13.4445L20.449 15.1053L12.0855 23.5492C15.2099 24.9323 18.988 24.3317 21.5454 21.7502C24.878 18.3862 24.878 12.9327 21.5454 9.57005C18.2142 6.20603 12.8117 6.20603 9.47918 9.57005C6.52233 12.5548 6.18991 17.1863 8.48193 20.5419L3.50124 25.571ZM44.6848 18.7753V16.4334H64C63.6075 24.4713 57.1952 30.9103 49.2185 31.2515C40.0882 31.6434 32.5823 23.9454 33.1102 14.7359C33.5795 6.54015 40.5296 0.0391025 48.5509 0.0391025C56.5723 0.0391025 63.1662 6.20178 63.9427 14.0916H56.9173C56.191 10.0945 52.7215 7.06604 48.5509 7.06604C43.2979 7.06604 39.1566 11.8724 40.2083 17.3682C40.8592 20.7646 43.5088 23.4308 46.8763 24.0793C51.1795 24.9069 55.0526 22.4593 56.4787 18.7753H44.6848Z" fill="url(#paint0_linear_646_5284)"/>
<defs>
<linearGradient id="paint0_linear_646_5284" x1="49.5549" y1="-1.70668" x2="13.8651" y2="28.0059" gradientUnits="userSpaceOnUse">
<stop stop-color="#FAEA53"/>
<stop offset="0.12" stop-color="#FFAF90"/>
<stop offset="0.25" stop-color="#FE7981"/>
<stop offset="0.56" stop-color="#BC50FF"/>
<stop offset="1" stop-color="#53B7FF"/>
</linearGradient>
</defs>
</svg>
